<svg xmlns="http://www.w3.org/2000/svg" viewBox="0 0 16 31" fill="#F4E6C9"><path d="M.907 16.884h3.288v13.538c0 .267.217.484.484.484h5.576a.484.484 0 0 0 .484-.484V16.948h3.78a.484.484 0 0 0 .48-.43l.575-4.983a.484.484 0 0 0-.48-.54h-4.355V7.872c0-.941.507-1.419 1.507-1.419h2.847a.484.484 0 0 0 .484-.484V1.393a.484.484 0 0 0-.484-.484H11.17a3.86 3.86 0 0 0-.18-.003c-.68 0-3.047.133-4.917 1.853C4.003 4.665 4.29 6.946 4.36 7.342v3.654H.907a.484.484 0 0 0-.484.483v4.92c0 .268.216.485.484.485Z"/></svg>