<svg xmlns="http://www.w3.org/2000/svg" viewBox="0 0 22 20" fill="currentColor"><path fill-rule="evenodd" d="M8.3.593C3.37 3.759.632 7.443.084 11.648c-.853 6.544 5 9.747 7.965 6.87 2.966-2.879 1.188-6.532-.959-7.53-2.147-1-3.46-.652-3.231-1.986.229-1.334 3.284-5.034 5.967-6.757a.49.49 0 0 0 .075-.668L9.237.714C8.95.34 8.673.354 8.3.593Zm12 0c-4.93 3.166-7.668 6.85-8.216 11.055-.853 6.544 5 9.747 7.965 6.87 2.966-2.879 1.188-6.532-.959-7.53-2.147-1-3.46-.652-3.231-1.986.229-1.334 3.284-5.034 5.967-6.757a.49.49 0 0 0 .075-.668l-.664-.863C20.95.34 20.673.354 20.3.593Z" clip-rule="evenodd"/></svg>