<svg xmlns="http://www.w3.org/2000/svg" viewBox="0 0 31 31" fill="#F4E6C9"><path d="M21.486.906H9.36C4.432.906.423 4.915.423 9.843v12.126c0 4.928 4.009 8.937 8.937 8.937h12.126c4.928 0 8.937-4.01 8.937-8.937V9.843c0-4.928-4.01-8.937-8.937-8.937Zm5.919 21.063a5.92 5.92 0 0 1-5.92 5.919H9.36a5.92 5.92 0 0 1-5.92-5.92V9.844a5.92 5.92 0 0 1 5.92-5.92h12.126a5.92 5.92 0 0 1 5.919 5.92V21.97Z"/><path d="M15.423 8.146c-4.279 0-7.76 3.481-7.76 7.76 0 4.278 3.481 7.759 7.76 7.759 4.278 0 7.759-3.481 7.759-7.76 0-4.278-3.48-7.759-7.76-7.759Zm0 12.5a4.741 4.741 0 1 1 0-9.481 4.741 4.741 0 0 1 0 9.482Zm7.774-10.582a1.86 1.86 0 1 0 0-3.718 1.86 1.86 0 0 0 0 3.718Z"/></svg>