<svg xmlns="http://www.w3.org/2000/svg" viewBox="0 0 30 30" fill="currentColor"><path d="M0 12.485c0 6.885 5.602 12.481 12.482 12.481 3.17 0 6.068-1.191 8.274-3.145l7.954 7.955a.748.748 0 0 0 .534.22.748.748 0 0 0 .535-.22.749.749 0 0 0 0-1.063l-7.96-7.954a12.435 12.435 0 0 0 3.144-8.274c0-6.886-5.602-12.482-12.481-12.482C5.602.003 0 5.6 0 12.485Zm23.458 0c0 6.05-4.926 10.976-10.976 10.976-6.05 0-10.977-4.926-10.977-10.976 0-6.05 4.926-10.977 10.977-10.977 6.05 0 10.976 4.92 10.976 10.977Z"/></svg>